#N canvas 527 46 604 642 10;
#X obj 260 65 inlet;
#X obj 74 344 color 1 1 1;
#X msg 145 403 draw line \, width 2;
#X obj 145 377 loadbang;
#X obj 260 94 sel 0 1;
#X obj 260 156 line;
#X obj 331 147 line;
#X floatatom 260 279 5 0 0 0 - - -;
#X obj 74 255 scaleXYZ 1;
#X obj 262 314 k_event 0 0.2;
#X msg 424 386 1;
#X floatatom 262 442 5 0 0 0 - - -;
#X obj 337 336 k_event 0.2 0.9;
#X obj 424 363 k_event 0.9 1;
#X floatatom 315 278 5 0 0 0 - - -;
#X obj 260 214 t f f;
#X obj 337 406 expr 0.35-abs($f1-0.55)*1.1+1;
#X obj 262 362 k_range 0 0.2 0.8 1;
#X obj 260 184 outquint;
#X obj 74 317 circle 0.25;
#X obj 74 385 circle 0.25;
#X obj 331 176 outquint;
#X obj 16 130 inlet;
#X obj 74 215 translateXYZ 0 0 0;
#X obj 84 596 curve 2;
#X obj 140 433 loadbang;
#X msg 203 457 0 \$1 0;
#X obj -35 518 loadbang;
#X floatatom 203 434 5 0 0 0 - - -;
#X obj 16 155 t a a;
#X obj 84 486 separator;
#X obj 84 565 color 1 1 1;
#X obj 74 190 separator;
#X obj 84 512 translateXYZ 0 0 -0.001;
#X obj -10 483 list \$1 \$2 \$3;
#X obj -10 452 loadbang;
#X msg 140 457 0 -0.8 0;
#X msg -34 542 draw point \, res 10;
#X obj 84 538 GEMglPointSize 2;
#X msg 260 124 0 \, 1 800;
#X msg 331 125 1 \, 0 700;
#X obj 260 245 k_range 0 1 -0.8 1.5;
#X connect 0 0 4 0;
#X connect 1 0 20 0;
#X connect 2 0 20 0;
#X connect 3 0 2 0;
#X connect 4 0 39 0;
#X connect 4 1 40 0;
#X connect 5 0 18 0;
#X connect 6 0 21 0;
#X connect 7 0 23 2;
#X connect 7 0 28 0;
#X connect 8 0 19 0;
#X connect 9 0 17 0;
#X connect 9 1 12 0;
#X connect 10 0 11 0;
#X connect 11 0 8 2;
#X connect 12 0 16 0;
#X connect 12 1 13 0;
#X connect 13 0 10 0;
#X connect 14 0 9 0;
#X connect 15 0 41 0;
#X connect 15 1 14 0;
#X connect 16 0 11 0;
#X connect 17 0 11 0;
#X connect 18 0 15 0;
#X connect 19 0 1 0;
#X connect 21 0 15 0;
#X connect 22 0 29 0;
#X connect 23 0 8 0;
#X connect 25 0 36 0;
#X connect 26 0 24 1;
#X connect 27 0 37 0;
#X connect 28 0 26 0;
#X connect 29 0 30 0;
#X connect 29 1 32 0;
#X connect 30 0 33 0;
#X connect 31 0 24 0;
#X connect 32 0 23 0;
#X connect 33 0 38 0;
#X connect 34 0 31 1;
#X connect 34 0 1 1;
#X connect 35 0 34 0;
#X connect 36 0 24 2;
#X connect 37 0 24 0;
#X connect 38 0 31 0;
#X connect 39 0 5 0;
#X connect 40 0 6 0;
#X connect 41 0 7 0;
