#N canvas 725 122 685 613 10;
#X obj 93 -250 gemhead;
#X obj 89 190 translateXYZ;
#X obj 91 -142 t a b;
#X obj 117 -120 f;
#X obj 112 71 t f f f;
#X obj 112 49 expr $f1*2*3.1415926;
#X obj 193 300 loadbang;
#X obj 93 -181 translateXYZ;
#X obj 286 -179 t f f;
#X obj 286 -147 expr $f1%10;
#X obj 318 -70 expr int($f1/10);
#X obj 286 -218 init \$1;
#X obj 281 -104 k_range 0 9 -2 2;
#X msg 187 -221 set \$1;
#X obj 114 -90 +;
#X obj 118 -63 +;
#X obj 286 -245 bng 15 250 50 0 empty empty empty 17 7 0 10 -262144
-1 -1;
#X obj 164 -89 * 10;
#X obj 185 -42 * 10;
#X obj 206 -177 + 1;
#X obj 386 -174 t f f;
#X obj 383 -143 * -1;
#X obj 378 -208 expr 3-(6*abs(($f1/10)-0.5))+0.1;
#X obj 324 60 k_range 0 9 2.5 -2.5;
#X msg 191 325 draw line \, width 1;
#X obj 113 23 t f f f;
#X obj 85 251 alpha;
#X obj 148 -120 + 4;
#X obj 77 223 colorRGB 0.12 0.12 0.12 1;
#X obj 319 -45 t f f f f;
#X obj 317 101 sel 5;
#X obj 313 180 unpack f f f;
#X obj 220 196 + 0.4;
#X msg 332 156 0.8 0.8 0.8;
#X msg 314 127 1 0 0;
#X obj 180 -121 % 120;
#X obj 111 -36 fmod 120;
#X obj 91 276 circle 0.1;
#X obj 93 331 circle 0.1;
#X obj 113 -12 / 120;
#X obj 93 299 color 1 1 1;
#X obj 277 222 expr abs($f1-0.5)*0.6+0.02;
#X obj 139 97 expr sin($f1)*0.8;
#X obj 107 120 expr cos($f1)*0.8;
#X connect 0 0 7 0;
#X connect 1 0 28 0;
#X connect 2 0 1 0;
#X connect 2 1 3 0;
#X connect 3 0 14 0;
#X connect 3 0 27 0;
#X connect 4 0 43 0;
#X connect 4 1 42 0;
#X connect 5 0 4 0;
#X connect 6 0 24 0;
#X connect 7 0 2 0;
#X connect 8 0 9 0;
#X connect 8 1 10 0;
#X connect 9 0 17 0;
#X connect 9 0 12 0;
#X connect 10 0 29 0;
#X connect 11 0 8 0;
#X connect 11 0 19 0;
#X connect 12 0 7 1;
#X connect 13 0 0 0;
#X connect 14 0 15 0;
#X connect 15 0 36 0;
#X connect 16 0 11 0;
#X connect 17 0 14 1;
#X connect 18 0 15 1;
#X connect 19 0 13 0;
#X connect 20 0 21 0;
#X connect 20 1 12 4;
#X connect 21 0 12 3;
#X connect 22 0 20 0;
#X connect 23 0 7 2;
#X connect 24 0 38 0;
#X connect 25 0 5 0;
#X connect 25 1 41 0;
#X connect 26 0 37 0;
#X connect 27 0 35 0;
#X connect 28 0 26 0;
#X connect 29 0 18 0;
#X connect 29 1 23 0;
#X connect 29 2 22 0;
#X connect 29 3 30 0;
#X connect 30 0 34 0;
#X connect 30 1 33 0;
#X connect 31 0 28 1;
#X connect 31 1 28 2;
#X connect 31 2 28 3;
#X connect 32 0 28 4;
#X connect 33 0 31 0;
#X connect 34 0 31 0;
#X connect 35 0 3 1;
#X connect 36 0 39 0;
#X connect 37 0 40 0;
#X connect 39 0 25 0;
#X connect 40 0 38 0;
#X connect 41 0 32 0;
#X connect 41 0 37 1;
#X connect 41 0 38 1;
#X connect 42 0 1 2;
#X connect 43 0 1 1;
