#N canvas 483 33 831 640 10;
#X obj 141 63 inlet;
#X obj 156 161 separator;
#X obj 141 186 separator;
#X obj -118 327 color 0.94 0.4 0.38;
#X obj 188 238 separator;
#X obj 172 211 separator;
#X obj 82 322 color 0.96 0.75 0.44;
#X obj -118 356 circle 0.3;
#X obj 82 351 circle 0.3;
#X obj 277 362 circle 0.3;
#X obj 471 365 circle 0.3;
#X obj 471 336 color 0 0.75 0.68;
#X obj 346 163 t f f f f;
#X obj 173 266 + 0.25;
#X obj 173 293 fmod 1;
#X obj 352 273 fmod 1;
#X obj 352 246 + 0.5;
#X obj 546 284 fmod 1;
#X obj 546 257 + 0.75;
#X obj -43 275 fmod 1;
#X obj -118 389 color 1 1 1;
#X msg -43 387 draw line \, width 2;
#X obj -43 361 loadbang;
#X obj 82 385 color 1 1 1;
#X msg 157 383 draw line \, width 2;
#X obj 157 357 loadbang;
#X obj 277 395 color 1 1 1;
#X msg 352 393 draw line \, width 2;
#X obj 352 367 loadbang;
#X obj 277 436 circle 0.3;
#X obj 471 401 color 1 1 1;
#X msg 546 399 draw line \, width 2;
#X obj 546 373 loadbang;
#X obj 471 442 circle 0.3;
#X obj 277 332 color 0 0.34 0.4;
#X obj 82 426 circle 0.3;
#X obj -118 430 circle 0.3;
#X obj -11 429 init \$1;
#X obj 170 420 init \$1;
#X obj 357 436 init \$1;
#X obj 550 443 init \$1;
#X obj 346 123 inlet;
#X obj 69 466 loadbang;
#X obj 395 554 loadbang;
#X msg 394 576 width 4;
#X obj 297 526 curve 2;
#X msg 68 488 width 2;
#X obj 158 529 curve 2;
#X obj 235 529 curve 2;
#X obj 98 559 loadbang;
#X msg 97 581 width 4;
#X obj 218 577 curve 2;
#X obj 141 133 t a a a a a a a a;
#X obj -118 300 k_rect_move 1.5;
#X obj 82 295 k_rect_move 1.5;
#X obj 277 308 k_rect_move 1.5;
#X obj 471 308 k_rect_move 1.5;
#X connect 0 0 52 0;
#X connect 1 0 54 0;
#X connect 2 0 53 0;
#X connect 3 0 7 0;
#X connect 4 0 56 0;
#X connect 5 0 55 0;
#X connect 6 0 8 0;
#X connect 7 0 20 0;
#X connect 8 0 23 0;
#X connect 9 0 26 0;
#X connect 10 0 30 0;
#X connect 11 0 10 0;
#X connect 12 0 19 0;
#X connect 12 1 13 0;
#X connect 12 2 16 0;
#X connect 12 3 18 0;
#X connect 13 0 14 0;
#X connect 14 0 54 1;
#X connect 15 0 55 1;
#X connect 16 0 15 0;
#X connect 17 0 56 1;
#X connect 18 0 17 0;
#X connect 19 0 53 1;
#X connect 20 0 36 0;
#X connect 21 0 36 0;
#X connect 22 0 21 0;
#X connect 23 0 35 0;
#X connect 24 0 35 0;
#X connect 25 0 24 0;
#X connect 26 0 29 0;
#X connect 27 0 29 0;
#X connect 28 0 27 0;
#X connect 30 0 33 0;
#X connect 31 0 33 0;
#X connect 32 0 31 0;
#X connect 34 0 9 0;
#X connect 37 0 7 1;
#X connect 37 0 36 1;
#X connect 38 0 8 1;
#X connect 38 0 35 1;
#X connect 39 0 9 1;
#X connect 39 0 29 1;
#X connect 40 0 10 1;
#X connect 40 0 33 1;
#X connect 41 0 12 0;
#X connect 42 0 46 0;
#X connect 43 0 44 0;
#X connect 44 0 45 0;
#X connect 46 0 47 0;
#X connect 46 0 48 0;
#X connect 49 0 50 0;
#X connect 50 0 51 0;
#X connect 52 0 2 0;
#X connect 52 1 1 0;
#X connect 52 2 5 0;
#X connect 52 3 4 0;
#X connect 52 4 47 0;
#X connect 52 5 48 0;
#X connect 52 6 45 0;
#X connect 52 7 51 0;
#X connect 53 0 3 0;
#X connect 53 1 45 1;
#X connect 53 1 47 1;
#X connect 54 0 6 0;
#X connect 54 1 47 2;
#X connect 54 1 51 2;
#X connect 55 0 34 0;
#X connect 55 1 45 2;
#X connect 55 1 48 1;
#X connect 56 0 11 0;
#X connect 56 1 48 2;
#X connect 56 1 51 1;
