#N canvas 636 239 654 458 10;
#X obj 175 59 GEMglEnd;
#X obj 226 28 GEMglBegin;
#X obj 175 28 t a a a;
#X obj 194 280 GEMglVertex3f 0 0 0;
#X obj 194 116 t a b;
#X obj 221 139 f;
#X obj 252 139 + 1;
#X obj 221 169 t f f;
#X obj 345 -72 init \$1;
#X obj 313 24 f 0;
#X obj 175 -38 t a b b;
#X obj 345 -99 once;
#X obj 350 48 t f f;
#X obj 268 160 tabread \$1-y;
#X obj 400 169 sel 1;
#X msg 427 247 \; \$1-y const 0;
#X obj 427 221 init \$1;
#X obj 400 195 t b b;
#X obj 372 304 s start;
#X obj 372 278 init \$1;
#X obj 175 -126 r gemhead;
#X obj 175 -95 separator;
#X obj 476 167 table \$1-y 50;
#X obj 194 83 repeat 50;
#X obj 282 139 % 50;
#X obj 377 96 + 1;
#X obj 77 117 init \$1;
#X obj 77 142 == 0;
#X obj 77 169 sel 0 1;
#X msg 97 195 0;
#X msg 75 224 3;
#X obj 80 90 bng 15 250 50 0 empty empty empty 17 7 0 10 -262144 -1
-1;
#X obj 441 -56 r color;
#X obj 441 -28 route \$1;
#X obj 175 -5 color;
#X obj 225 224 expr ($f1/50)*3-1.5;
#X msg 283 -4 3;
#X obj 283 -35 loadbang;
#X obj 350 23 - 0.2;
#X obj 377 73 expr if($f1<-3.8 \, 0 \, $f1);
#X obj 350 121 expr if($f1<-3.8 \, 1 \, 0);
#X obj 345 -44 * -0.2;
#X obj 295 79 + 1;
#X obj 408 -88 bng 15 250 50 0 empty empty empty 17 7 0 10 -262144
-1 -1;
#X obj 268 185 * 1;
#X obj 212 -66 f;
#X obj 243 -66 + 1;
#X obj 246 -36 sel 0;
#X obj 269 -66 % 1;
#X connect 2 0 0 0;
#X connect 2 1 23 0;
#X connect 2 2 1 0;
#X connect 4 0 3 0;
#X connect 4 1 5 0;
#X connect 5 0 6 0;
#X connect 5 0 7 0;
#X connect 6 0 24 0;
#X connect 7 0 35 0;
#X connect 7 1 13 0;
#X connect 8 0 41 0;
#X connect 9 0 38 0;
#X connect 10 0 34 0;
#X connect 10 1 45 0;
#X connect 10 2 11 0;
#X connect 11 0 8 0;
#X connect 12 0 40 0;
#X connect 12 1 39 0;
#X connect 13 0 44 0;
#X connect 14 0 17 0;
#X connect 16 0 15 0;
#X connect 17 0 19 0;
#X connect 17 1 16 0;
#X connect 19 0 18 0;
#X connect 20 0 21 0;
#X connect 21 0 10 0;
#X connect 23 0 4 0;
#X connect 24 0 5 1;
#X connect 25 0 3 3;
#X connect 26 0 27 0;
#X connect 27 0 28 0;
#X connect 28 0 30 0;
#X connect 28 1 29 0;
#X connect 31 0 26 0;
#X connect 32 0 33 0;
#X connect 33 0 34 1;
#X connect 34 0 2 0;
#X connect 35 0 3 1;
#X connect 36 0 1 1;
#X connect 37 0 36 0;
#X connect 38 0 12 0;
#X connect 39 0 9 1;
#X connect 39 0 25 0;
#X connect 40 0 14 0;
#X connect 41 0 9 1;
#X connect 41 0 42 0;
#X connect 42 0 3 3;
#X connect 43 0 8 0;
#X connect 44 0 3 2;
#X connect 45 0 46 0;
#X connect 45 0 47 0;
#X connect 46 0 48 0;
#X connect 47 0 9 0;
#X connect 48 0 45 1;
