#N canvas 729 30 471 663 10;
#X declare -path abs;
#X obj -9 17 loadbang;
#X obj -9 76 gemwin;
#X msg 55 19 destroy;
#X msg 38 77 \; pd dsp 1;
#X obj 139 89 k_snap;
#X obj 139 112 tgl 15 0 empty empty empty 17 7 0 10 -262144 -1 -1 0
1;
#X obj 139 23 t b b;
#X obj 139 4 bng 15 250 50 0 empty empty empty 17 7 0 10 -262144 -1
-1;
#X msg -9 44 reset \, FSAA 8 \, dimen 500 500 \, color 0.7 0.7 0.7
\, create \, 1;
#X obj -14 132 rosquare 0;
#X msg 172 70 size 500 500 \, end 120 \, name rosquare;
#X obj 217 102 declare -path abs;
#X obj -14 159 rosquare 1;
#X obj -14 182 rosquare 2;
#X obj -14 208 rosquare 3;
#X obj -15 234 rosquare 4;
#X obj -14 260 rosquare 5;
#X obj -14 283 rosquare 6;
#X obj -14 309 rosquare 7;
#X obj -13 333 rosquare 8;
#X obj -13 359 rosquare 9;
#X obj 58 132 rosquare 10;
#X obj 58 159 rosquare 11;
#X obj 58 182 rosquare 12;
#X obj 58 208 rosquare 13;
#X obj 57 234 rosquare 14;
#X obj 58 260 rosquare 15;
#X obj 58 283 rosquare 16;
#X obj 58 309 rosquare 17;
#X obj 59 333 rosquare 18;
#X obj 59 359 rosquare 19;
#X obj 141 135 rosquare 20;
#X obj 141 162 rosquare 21;
#X obj 141 185 rosquare 22;
#X obj 141 211 rosquare 23;
#X obj 140 237 rosquare 24;
#X obj 141 263 rosquare 25;
#X obj 141 286 rosquare 26;
#X obj 141 312 rosquare 27;
#X obj 142 336 rosquare 28;
#X obj 142 362 rosquare 29;
#X obj 225 133 rosquare 30;
#X obj 226 160 rosquare 31;
#X obj 226 183 rosquare 32;
#X obj 226 209 rosquare 33;
#X obj 225 235 rosquare 34;
#X obj 226 261 rosquare 35;
#X obj 226 284 rosquare 36;
#X obj 226 310 rosquare 37;
#X obj 227 334 rosquare 38;
#X obj 227 360 rosquare 39;
#X obj 301 134 rosquare 40;
#X obj 301 161 rosquare 41;
#X obj 301 184 rosquare 42;
#X obj 301 210 rosquare 43;
#X obj 300 236 rosquare 44;
#X obj 301 261 rosquare 45;
#X obj 301 285 rosquare 46;
#X obj 301 311 rosquare 47;
#X obj 302 335 rosquare 48;
#X obj 303 359 rosquare 49;
#X obj -14 401 rosquare 50;
#X obj -14 428 rosquare 51;
#X obj -14 451 rosquare 52;
#X obj -14 477 rosquare 53;
#X obj -15 503 rosquare 54;
#X obj -14 529 rosquare 55;
#X obj -14 552 rosquare 56;
#X obj -14 578 rosquare 57;
#X obj -13 602 rosquare 58;
#X obj -13 628 rosquare 59;
#X obj 65 403 rosquare 60;
#X obj 65 430 rosquare 61;
#X obj 65 453 rosquare 62;
#X obj 65 479 rosquare 63;
#X obj 64 505 rosquare 64;
#X obj 65 531 rosquare 65;
#X obj 65 554 rosquare 66;
#X obj 65 580 rosquare 67;
#X obj 65 604 rosquare 68;
#X obj 66 630 rosquare 69;
#X obj 152 403 rosquare 70;
#X obj 152 430 rosquare 71;
#X obj 152 453 rosquare 72;
#X obj 152 479 rosquare 73;
#X obj 151 505 rosquare 74;
#X obj 152 531 rosquare 75;
#X obj 152 554 rosquare 76;
#X obj 152 580 rosquare 77;
#X obj 153 604 rosquare 78;
#X obj 153 630 rosquare 79;
#X obj 231 405 rosquare 80;
#X obj 231 432 rosquare 81;
#X obj 231 456 rosquare 82;
#X obj 231 481 rosquare 83;
#X obj 230 507 rosquare 84;
#X obj 231 533 rosquare 85;
#X obj 231 556 rosquare 86;
#X obj 231 582 rosquare 87;
#X obj 232 607 rosquare 88;
#X obj 232 632 rosquare 89;
#X obj 309 406 rosquare 90;
#X obj 309 433 rosquare 91;
#X obj 309 456 rosquare 92;
#X obj 309 483 rosquare 93;
#X obj 308 508 rosquare 94;
#X obj 309 534 rosquare 95;
#X obj 309 557 rosquare 96;
#X obj 309 583 rosquare 97;
#X obj 310 607 rosquare 98;
#X obj 310 633 rosquare 99;
#X connect 0 0 8 0;
#X connect 0 0 3 0;
#X connect 2 0 1 0;
#X connect 4 0 5 0;
#X connect 6 0 4 0;
#X connect 6 1 10 0;
#X connect 7 0 6 0;
#X connect 8 0 1 0;
#X connect 10 0 4 1;
