#N canvas 646 236 659 497 10;
#X obj 160 -37 gemhead;
#X obj 160 117 repeat 100;
#X obj 160 140 t a b;
#X obj 236 108 f;
#X obj 261 108 + 1;
#X obj 160 244 translateXYZ;
#X obj 160 206 separator;
#X obj 160 350 model abs/frame.obj;
#X obj -63 42 gemwin;
#X obj -63 -14 loadbang;
#X obj 236 175 t f f;
#X floatatom 222 60 5 0 0 0 - - -;
#X obj 2 -64 k_camera;
#X obj 160 268 rotateXYZ 0 0 0;
#X obj 236 130 t f f f f;
#X obj 373 196 tabread y;
#X obj 160 -12 t a b;
#X obj 222 -30 f;
#X obj 222 -8 t f f;
#X obj 235 198 expr cos($f1)* 6;
#X obj 263 219 expr sin($f1)* 6;
#X obj -63 65 table y 100;
#X obj 289 108 % 100;
#X obj 271 -30 % 100;
#X obj 330 252 expr (1-($f1/100))*360;
#X obj 236 152 expr 3.1415926*2*($f1/100);
#X obj 160 44 translateXYZ 0 0 0;
#X obj 222 17 expr ($f1/100)*360;
#X obj -63 133 repeat 100;
#X obj -63 156 f;
#X obj -38 156 + 1;
#X obj -10 156 % 100;
#X obj -63 113 bng 15 250 50 0 empty empty empty 17 7 0 10 -262144
-1 -1;
#X obj -63 247 tabwrite y;
#X obj -63 178 t f f;
#X obj -63 202 expr 3.1415926*2*($f1/25);
#X obj 246 -30 + 1;
#X obj -63 225 expr cos($f1)* 0.3;
#X obj 160 296 scaleXYZ 1 2.5 1;
#X obj 160 323 color 0 0 0;
#X obj 373 218 * 3;
#X msg -63 13 destroy \, FSAA 8 \, create \, 1 \, color 1 1 1;
#X obj -63 90 loadbang;
#X obj 160 86 rotateXYZ 1 0 10;
#X obj -122 303 k_snap;
#X obj -122 326 tgl 15 0 empty empty empty 17 7 0 10 -262144 -1 -1
0 1;
#X obj -122 237 t b b;
#X obj -122 218 bng 15 250 50 0 empty empty empty 17 7 0 10 -262144
-1 -1;
#X msg -89 284 size 500 500 \, end 100 \, name tunnel;
#X connect 0 0 16 0;
#X connect 1 0 2 0;
#X connect 2 0 6 0;
#X connect 2 1 3 0;
#X connect 3 0 4 0;
#X connect 3 0 14 0;
#X connect 4 0 22 0;
#X connect 5 0 13 0;
#X connect 6 0 5 0;
#X connect 9 0 41 0;
#X connect 10 0 19 0;
#X connect 10 1 20 0;
#X connect 11 0 43 2;
#X connect 12 0 8 0;
#X connect 13 0 38 0;
#X connect 14 0 25 0;
#X connect 14 1 24 0;
#X connect 14 3 15 0;
#X connect 15 0 40 0;
#X connect 16 0 26 0;
#X connect 16 1 17 0;
#X connect 17 0 18 0;
#X connect 17 0 36 0;
#X connect 18 0 27 0;
#X connect 19 0 5 1;
#X connect 20 0 5 3;
#X connect 22 0 3 1;
#X connect 23 0 17 1;
#X connect 24 0 13 2;
#X connect 25 0 10 0;
#X connect 26 0 43 0;
#X connect 27 0 11 0;
#X connect 28 0 29 0;
#X connect 29 0 30 0;
#X connect 29 0 34 0;
#X connect 30 0 31 0;
#X connect 31 0 29 1;
#X connect 32 0 28 0;
#X connect 34 0 35 0;
#X connect 34 1 33 1;
#X connect 35 0 37 0;
#X connect 36 0 23 0;
#X connect 37 0 33 0;
#X connect 38 0 39 0;
#X connect 39 0 7 0;
#X connect 40 0 5 2;
#X connect 41 0 8 0;
#X connect 42 0 32 0;
#X connect 43 0 1 0;
#X connect 44 0 45 0;
#X connect 46 0 44 0;
#X connect 46 1 48 0;
#X connect 47 0 46 0;
#X connect 48 0 44 1;
