#N canvas 527 189 796 514 10;
#X declare -path abs;
#X obj 231 3 gemwin;
#X obj 209 194 translateXYZ 0 0 0;
#X obj 44 77 translateXYZ 2 0 0;
#X obj 210 77 translateXYZ 1 0 0;
#X obj 378 75 translateXYZ -1 0 0;
#X obj 43 194 translateXYZ -2 0 0;
#X obj 127 -17 f;
#X obj 155 -17 + 1;
#X obj 184 -17 % 2;
#X obj 127 11 t f f;
#X obj 154 36 invert;
#X obj 106 269 pipe 200;
#X obj 44 35 gemhead 10;
#X obj 210 35 gemhead 10;
#X obj 378 33 gemhead 10;
#X obj 43 152 gemhead 10;
#X obj 209 152 gemhead 10;
#X obj 524 47 gemhead;
#X obj 576 191 cube 1;
#X obj 524 161 t a a;
#X obj 486 272 cube 1;
#X obj 485 216 separator;
#X obj 452 166 loadbang;
#X obj 524 106 rotateXYZ 16.8 0 0;
#X obj 524 131 scaleXYZ 3 0.12 0.8;
#X obj 231 -56 loadbang;
#X msg 232 -23 reset \, FSAA 8 \, color 0.13 0.13 0.13 \, create \,
1;
#X obj 209 217 color 0.13 0.13 0.13;
#X obj 43 218 color 0.13 0.13 0.13;
#X obj 44 101 color 0.13 0.13 0.13;
#X obj 210 101 color 0.13 0.13 0.13;
#X obj 378 97 color 0.13 0.13 0.13;
#X obj 576 164 color 0.13 0.13 0.13;
#X obj 44 127 fall 0.9 0.9 0.9;
#X obj 524 82 translateXYZ 0 -1.12 -0.7;
#X obj 378 124 fall 0.13 0.94 0.59;
#X obj 43 244 fall 0.73 0.73 0.47;
#X obj 210 127 fall 0.95 0.21 0.33;
#X obj 209 243 fall 0.24 0.52 0.84;
#X msg 452 188 draw line \, width 2;
#X obj 485 242 color 0.62 0.62 0.78;
#X obj 533 -12 k_snap;
#X obj 533 11 tgl 15 0 empty empty empty 17 7 0 10 -262144 -1 -1 0
1;
#X obj 533 -61 t b b;
#X obj 533 -80 bng 15 250 50 0 empty empty empty 17 7 0 10 -262144
-1 -1;
#X obj 127 -138 gemhead;
#X obj 127 -86 f;
#X obj 152 -86 + 1;
#X obj 127 -110 t b;
#X obj 127 -63 sel 0;
#X obj 127 -40 bng 15 250 50 0 empty empty empty 17 7 0 10 -262144
-1 -1;
#X obj 180 -86 % 15;
#X msg 566 -43 size 500 500 \, end 30 \, name fall;
#X obj 305 -81 declare -path abs;
#X connect 1 0 27 0;
#X connect 2 0 29 0;
#X connect 3 0 30 0;
#X connect 4 0 31 0;
#X connect 5 0 28 0;
#X connect 6 0 7 0;
#X connect 6 0 9 0;
#X connect 7 0 8 0;
#X connect 8 0 6 1;
#X connect 9 0 11 0;
#X connect 9 0 38 1;
#X connect 9 1 10 0;
#X connect 10 0 35 1;
#X connect 10 0 37 1;
#X connect 11 0 33 1;
#X connect 11 0 36 1;
#X connect 12 0 2 0;
#X connect 13 0 3 0;
#X connect 14 0 4 0;
#X connect 15 0 5 0;
#X connect 16 0 1 0;
#X connect 17 0 34 0;
#X connect 19 0 21 0;
#X connect 19 1 32 0;
#X connect 21 0 40 0;
#X connect 22 0 39 0;
#X connect 23 0 24 0;
#X connect 24 0 19 0;
#X connect 25 0 26 0;
#X connect 26 0 0 0;
#X connect 27 0 38 0;
#X connect 28 0 36 0;
#X connect 29 0 33 0;
#X connect 30 0 37 0;
#X connect 31 0 35 0;
#X connect 32 0 18 0;
#X connect 34 0 23 0;
#X connect 39 0 20 0;
#X connect 40 0 20 0;
#X connect 41 0 42 0;
#X connect 43 0 41 0;
#X connect 43 1 52 0;
#X connect 44 0 43 0;
#X connect 45 0 48 0;
#X connect 46 0 47 0;
#X connect 46 0 49 0;
#X connect 47 0 51 0;
#X connect 48 0 46 0;
#X connect 49 0 50 0;
#X connect 50 0 6 0;
#X connect 51 0 46 1;
#X connect 52 0 41 1;
