#N canvas 533 22 807 666 10;
#X obj -265 167 gemwin;
#X obj 21 60 gemhead 10;
#X obj -265 112 loadbang;
#X msg -265 141 reset \, FSAA 8 \, color 0.9 0.9 0.88 \, create \,
1;
#X obj 48 104 f;
#X obj 75 104 + 1;
#X obj 21 77 t a b;
#X obj 101 104 % 60;
#X obj 48 137 / 60;
#X obj 48 173 inoutquint;
#X obj 28 233 separator;
#X obj 13 258 separator;
#X obj -246 399 color 0.94 0.4 0.38;
#X obj 60 310 separator;
#X obj 44 283 separator;
#X obj -46 394 color 0.96 0.75 0.44;
#X obj -246 428 circle 0.3;
#X obj -46 423 circle 0.3;
#X obj 149 434 circle 0.3;
#X obj 343 437 circle 0.3;
#X obj 343 408 color 0 0.75 0.68;
#X obj 218 235 t f f f f;
#X obj 45 338 + 0.25;
#X obj 45 365 fmod 1;
#X obj 224 345 fmod 1;
#X obj 224 318 + 0.5;
#X obj 418 356 fmod 1;
#X obj 418 329 + 0.75;
#X obj -159 347 fmod 1;
#X obj -246 461 color 1 1 1;
#X msg -171 459 draw line \, width 2;
#X obj -171 433 loadbang;
#X obj -46 457 color 1 1 1;
#X msg 29 455 draw line \, width 2;
#X obj 29 429 loadbang;
#X obj 149 467 color 1 1 1;
#X msg 224 465 draw line \, width 2;
#X obj 224 439 loadbang;
#X obj 149 508 circle 0.3;
#X obj 343 473 color 1 1 1;
#X msg 418 471 draw line \, width 2;
#X obj 418 445 loadbang;
#X obj 343 514 circle 0.3;
#X obj 149 404 color 0 0.34 0.4;
#X obj -46 498 circle 0.3;
#X obj -246 502 circle 0.3;
#X obj -59 538 loadbang;
#X obj 267 626 loadbang;
#X msg 266 648 width 4;
#X obj 169 598 curve 2;
#X msg -60 560 width 2;
#X obj 30 601 curve 2;
#X obj 107 601 curve 2;
#X obj -30 631 loadbang;
#X msg -31 653 width 4;
#X obj 90 649 curve 2;
#X obj 13 205 t a a a a a a a a;
#X obj -246 372 k_rect_move 1.5;
#X obj -46 367 k_rect_move 1.5;
#X obj 149 380 k_rect_move 1.5;
#X obj 343 380 k_rect_move 1.5;
#X obj -200 238 k_snap;
#X msg -167 207 size 500 500 \, end 60 \, name ro;
#X obj -200 261 tgl 15 0 empty empty empty 17 7 0 10 -262144 -1 -1
0 1;
#X obj -200 189 t b b;
#X obj -200 170 bng 15 250 50 0 empty empty empty 17 7 0 10 -262144
-1 -1;
#X connect 1 0 6 0;
#X connect 2 0 3 0;
#X connect 3 0 0 0;
#X connect 4 0 5 0;
#X connect 4 0 8 0;
#X connect 5 0 7 0;
#X connect 6 0 56 0;
#X connect 6 1 4 0;
#X connect 7 0 4 1;
#X connect 8 0 9 0;
#X connect 9 0 21 0;
#X connect 10 0 58 0;
#X connect 11 0 57 0;
#X connect 12 0 16 0;
#X connect 13 0 60 0;
#X connect 14 0 59 0;
#X connect 15 0 17 0;
#X connect 16 0 29 0;
#X connect 17 0 32 0;
#X connect 18 0 35 0;
#X connect 19 0 39 0;
#X connect 20 0 19 0;
#X connect 21 0 28 0;
#X connect 21 1 22 0;
#X connect 21 2 25 0;
#X connect 21 3 27 0;
#X connect 22 0 23 0;
#X connect 23 0 58 1;
#X connect 24 0 59 1;
#X connect 25 0 24 0;
#X connect 26 0 60 1;
#X connect 27 0 26 0;
#X connect 28 0 57 1;
#X connect 29 0 45 0;
#X connect 30 0 45 0;
#X connect 31 0 30 0;
#X connect 32 0 44 0;
#X connect 33 0 44 0;
#X connect 34 0 33 0;
#X connect 35 0 38 0;
#X connect 36 0 38 0;
#X connect 37 0 36 0;
#X connect 39 0 42 0;
#X connect 40 0 42 0;
#X connect 41 0 40 0;
#X connect 43 0 18 0;
#X connect 46 0 50 0;
#X connect 47 0 48 0;
#X connect 48 0 49 0;
#X connect 50 0 51 0;
#X connect 50 0 52 0;
#X connect 53 0 54 0;
#X connect 54 0 55 0;
#X connect 56 0 11 0;
#X connect 56 1 10 0;
#X connect 56 2 14 0;
#X connect 56 3 13 0;
#X connect 56 4 51 0;
#X connect 56 5 52 0;
#X connect 56 6 49 0;
#X connect 56 7 55 0;
#X connect 57 0 12 0;
#X connect 57 1 49 1;
#X connect 57 1 51 1;
#X connect 58 0 15 0;
#X connect 58 1 51 2;
#X connect 58 1 55 2;
#X connect 59 0 43 0;
#X connect 59 1 49 2;
#X connect 59 1 52 1;
#X connect 60 0 20 0;
#X connect 60 1 52 2;
#X connect 60 1 55 1;
#X connect 61 0 63 0;
#X connect 62 0 61 1;
#X connect 64 0 61 0;
#X connect 64 1 62 0;
#X connect 65 0 64 0;
