#N canvas 628 197 276 144 10;
#X obj -386 -213 gemwin;
#X msg -386 -242 destroy \, color 0 0 0 \, FSAA 8 \, create \, 1;
#X obj -386 -278 bng 30 250 50 0 empty empty empty 17 7 0 10 -262144
-1 -1;
#N canvas 392 22 756 751 draw 0;
#X obj 46 184 bng 15 250 50 0 empty empty empty 17 7 0 10 -262144 -1
-1;
#X text 573 2 108;
#X obj 366 -369 gemhead;
#X obj 366 -136 translateXYZ 0 0 0;
#X obj 371 72 pix_crop;
#X obj 487 33 t b b b b;
#X obj 538 56 f;
#X obj 369 -111 tabread rotate;
#X obj 366 -192 t a b;
#X obj 366 -163 separator;
#X obj 371 99 pix_texture;
#X msg 255 121 rectangle 0;
#X obj 255 98 loadbang;
#X msg 541 87 0;
#X obj 134 124 pix_buffer tex 2;
#X obj 366 -281 pix_buffer_read tex;
#X obj 366 -313 t a b;
#X msg 476 -311 0;
#X msg 471 78 400;
#X msg 509 85 5;
#X obj 524 -116 int;
#X obj 373 280 pix_buffer_read tex;
#X obj 373 248 t a b;
#X msg 489 250 1;
#X obj 373 322 pix_crop;
#X obj 552 183 t b b b b;
#X obj 656 232 f;
#X msg 606 237 0;
#X msg 536 228 400;
#X msg 574 235 5;
#X obj 374 390 pix_texture;
#X msg 296 318 rectangle 0;
#X obj 296 293 loadbang;
#X obj 523 -87 t b f f f f;
#X obj 635 133 t b f;
#X obj 46 210 repeat 108;
#X obj 46 347 tabwrite rotate;
#X obj 46 235 k_count 1 108;
#X obj 46 259 t f f;
#X obj 366 -224 repeat 108;
#X obj 46 288 / 107;
#X obj 175 153 table rotate 108;
#X obj 168 205 metro 50;
#X obj 168 181 tgl 15 0 empty empty empty 17 7 0 10 -262144 -1 -1 1
1;
#X obj 168 227 repeat 108;
#X obj 168 252 k_count 1 108;
#X obj 167 275 t f f;
#X obj 166 406 tabwrite rotate;
#X obj 165 302 tabread rotate;
#X obj 166 349 fmod 1;
#X obj 370 -82 expr 2*abs($f1-0.5);
#X obj 209 -65 line;
#X obj 366 -252 alpha;
#X obj 602 37 * 5;
#X obj 670 194 * 5;
#X obj 370 -52 * 180;
#X obj 373 209 translateXYZ 0 0 -0.01;
#X obj 195 -256 metro 1000;
#X obj 195 -281 tgl 15 0 empty empty empty 17 7 0 10 -262144 -1 -1
1 1;
#X obj 370 -29 + 180;
#X obj 602 15 + 1;
#X obj 667 156 + 1;
#X msg 162 -103 0 \, 180 2000;
#X msg 179 -136 180 \, 0 2000;
#X obj 166 322 + 0.005;
#X obj 324 21 rotateXYZ 0 0 0;
#X obj 485 -172 * 5;
#X obj 195 -227 k_count 1 10;
#X obj 265 -156 tgl 15 0 empty empty empty 17 7 0 10 -262144 -1 -1
1 1;
#X obj 265 -85 line;
#X obj 265 -132 * 180;
#X obj 374 355 scaleXYZ 1 1 1;
#X obj 374 152 scaleXYZ 1 1 1;
#X obj 379 -1 +;
#X msg 265 -108 \$1 1000;
#X obj 162 -191 sel 0 6 9;
#X obj 371 126 scaleXYZ 6 0.1 1;
#X msg 494 156 draw line;
#X obj 373 182 square 1;
#X obj 373 417 square 1;
#X obj 366 -341 scale 0.35;
#X obj 45 89 loadbang;
#X obj 45 112 t b b b b b;
#X obj 45 68 bng 15 250 50 0 empty empty empty 17 7 0 10 -262144 -1
-1;
#X obj 524 -144 f;
#X obj 552 -144 + 1;
#X obj 584 -144 % 108;
#X obj 538 -56 expr ($f1/107)*16-8;
#X obj 46 40 inlet;
#X msg 136 62 open data/ma.png 0;
#X msg 152 86 open data/jin.png 1;
#X connect 0 0 35 0;
#X connect 2 0 80 0;
#X connect 3 0 65 0;
#X connect 4 0 10 0;
#X connect 5 0 18 0;
#X connect 5 1 19 0;
#X connect 5 2 13 0;
#X connect 5 3 6 0;
#X connect 6 0 4 4;
#X connect 7 0 50 0;
#X connect 8 0 9 0;
#X connect 8 1 84 0;
#X connect 9 0 3 0;
#X connect 10 0 76 0;
#X connect 11 0 10 0;
#X connect 12 0 11 0;
#X connect 13 0 4 3;
#X connect 15 0 52 0;
#X connect 16 0 15 0;
#X connect 16 1 17 0;
#X connect 17 0 15 1;
#X connect 18 0 4 1;
#X connect 19 0 4 2;
#X connect 20 0 33 0;
#X connect 21 0 24 0;
#X connect 22 0 21 0;
#X connect 22 1 23 0;
#X connect 23 0 21 1;
#X connect 24 0 71 0;
#X connect 25 0 28 0;
#X connect 25 1 29 0;
#X connect 25 2 27 0;
#X connect 25 3 26 0;
#X connect 26 0 24 4;
#X connect 27 0 24 3;
#X connect 28 0 24 1;
#X connect 29 0 24 2;
#X connect 30 0 79 0;
#X connect 31 0 30 0;
#X connect 32 0 31 0;
#X connect 33 0 5 0;
#X connect 33 1 87 0;
#X connect 33 2 60 0;
#X connect 33 3 7 0;
#X connect 33 4 34 0;
#X connect 34 0 25 0;
#X connect 34 1 61 0;
#X connect 35 0 37 0;
#X connect 37 0 38 0;
#X connect 38 0 40 0;
#X connect 38 1 36 1;
#X connect 39 0 8 0;
#X connect 40 0 36 0;
#X connect 42 0 44 0;
#X connect 43 0 42 0;
#X connect 44 0 45 0;
#X connect 45 0 46 0;
#X connect 46 0 48 0;
#X connect 46 1 47 1;
#X connect 48 0 64 0;
#X connect 49 0 47 0;
#X connect 50 0 55 0;
#X connect 50 0 66 0;
#X connect 51 0 55 1;
#X connect 51 0 59 1;
#X connect 52 0 39 0;
#X connect 53 0 6 1;
#X connect 54 0 26 1;
#X connect 55 0 59 0;
#X connect 56 0 22 0;
#X connect 57 0 67 0;
#X connect 58 0 57 0;
#X connect 59 0 73 0;
#X connect 60 0 53 0;
#X connect 61 0 54 0;
#X connect 62 0 51 0;
#X connect 63 0 51 0;
#X connect 64 0 49 0;
#X connect 65 0 4 0;
#X connect 66 0 3 3;
#X connect 67 0 75 0;
#X connect 68 0 70 0;
#X connect 69 0 73 1;
#X connect 70 0 74 0;
#X connect 71 0 30 0;
#X connect 72 0 78 0;
#X connect 73 0 65 2;
#X connect 74 0 69 0;
#X connect 75 0 62 0;
#X connect 75 1 63 0;
#X connect 75 2 68 0;
#X connect 76 0 72 0;
#X connect 77 0 78 0;
#X connect 77 0 79 0;
#X connect 78 0 56 0;
#X connect 80 0 16 0;
#X connect 81 0 82 0;
#X connect 82 0 43 0;
#X connect 82 1 0 0;
#X connect 82 2 90 0;
#X connect 82 3 89 0;
#X connect 82 4 58 0;
#X connect 83 0 81 0;
#X connect 84 0 85 0;
#X connect 84 0 20 0;
#X connect 85 0 86 0;
#X connect 86 0 84 1;
#X connect 87 0 3 2;
#X connect 88 0 83 0;
#X connect 89 0 14 0;
#X connect 90 0 14 0;
#X restore -386 -171 pd draw;
#X obj -386 -190 bng 15 250 50 0 empty empty empty 17 7 0 10 -262144
-1 -1;
#X connect 1 0 0 0;
#X connect 2 0 1 0;
#X connect 4 0 3 0;
