#N canvas 514 33 801 730 10;
#X declare -path abs;
#X obj 356 529 loadbang;
#X obj 356 592 gemwin;
#X msg 420 531 destroy;
#X msg 413 595 \; pd dsp 1;
#X obj -14 133 rocircle 0;
#X msg 356 556 reset \, FSAA 8 \, dimen 500 500 \, color 0.7 0.7 0.7
\, create \, 1;
#X obj 356 491 k_snap;
#X obj 356 514 tgl 15 0 empty empty empty 17 7 0 10 -262144 -1 -1 0
1;
#X obj 356 442 t b b;
#X obj 356 423 bng 15 250 50 0 empty empty empty 17 7 0 10 -262144
-1 -1;
#X msg 389 460 size 500 500 \, end 120 \, name rocircle;
#X obj 523 317 declare -path abs;
#X obj 68 389 rocircle 50;
#X obj -14 617 rocircle 49;
#X obj 69 615 rocircle 59;
#X obj 151 616 rocircle 69;
#X obj 234 614 rocircle 79;
#X obj 217 355 rocircle 39;
#X obj -14 159 rocircle 1;
#X obj -14 182 rocircle 2;
#X obj -14 208 rocircle 3;
#X obj -14 234 rocircle 4;
#X obj -14 260 rocircle 5;
#X obj -14 283 rocircle 6;
#X obj -14 309 rocircle 7;
#X obj -13 359 rocircle 9;
#X obj 60 131 rocircle 10;
#X obj 60 157 rocircle 11;
#X obj 60 180 rocircle 12;
#X obj 60 206 rocircle 13;
#X obj 60 232 rocircle 14;
#X obj 60 258 rocircle 15;
#X obj 60 281 rocircle 16;
#X obj 60 307 rocircle 17;
#X obj 61 357 rocircle 19;
#X obj 142 131 rocircle 20;
#X obj 142 157 rocircle 21;
#X obj 142 180 rocircle 22;
#X obj 142 206 rocircle 23;
#X obj 142 232 rocircle 24;
#X obj 142 258 rocircle 25;
#X obj 142 281 rocircle 26;
#X obj 142 307 rocircle 27;
#X obj 143 357 rocircle 29;
#X obj 216 129 rocircle 30;
#X obj 216 155 rocircle 31;
#X obj 216 178 rocircle 32;
#X obj 216 204 rocircle 33;
#X obj 216 230 rocircle 34;
#X obj 216 256 rocircle 35;
#X obj 216 279 rocircle 36;
#X obj 216 305 rocircle 37;
#X obj 217 329 rocircle 38;
#X obj 143 331 rocircle 28;
#X obj 61 331 rocircle 18;
#X obj -13 333 rocircle 8;
#X obj -15 391 rocircle 40;
#X obj -15 417 rocircle 41;
#X obj -15 440 rocircle 42;
#X obj -15 466 rocircle 43;
#X obj -15 492 rocircle 44;
#X obj -15 518 rocircle 45;
#X obj -15 541 rocircle 46;
#X obj -15 567 rocircle 47;
#X obj -14 591 rocircle 48;
#X obj 68 415 rocircle 51;
#X obj 68 438 rocircle 52;
#X obj 68 464 rocircle 53;
#X obj 68 490 rocircle 54;
#X obj 68 516 rocircle 55;
#X obj 68 539 rocircle 56;
#X obj 68 565 rocircle 57;
#X obj 69 589 rocircle 58;
#X obj 150 390 rocircle 60;
#X obj 150 416 rocircle 61;
#X obj 150 439 rocircle 62;
#X obj 150 465 rocircle 63;
#X obj 150 491 rocircle 64;
#X obj 150 517 rocircle 65;
#X obj 150 540 rocircle 66;
#X obj 149 566 rocircle 67;
#X obj 151 590 rocircle 68;
#X obj 233 388 rocircle 70;
#X obj 233 414 rocircle 71;
#X obj 233 437 rocircle 72;
#X obj 233 463 rocircle 73;
#X obj 233 489 rocircle 74;
#X obj 233 515 rocircle 75;
#X obj 233 564 rocircle 77;
#X obj 234 588 rocircle 78;
#X obj 233 538 rocircle 76;
#X obj 302 123 rocircle 80;
#X obj 302 149 rocircle 81;
#X obj 302 172 rocircle 82;
#X obj 302 198 rocircle 83;
#X obj 302 224 rocircle 84;
#X obj 297 251 rocircle 85;
#X obj 302 273 rocircle 86;
#X obj 303 323 rocircle 88;
#X obj 303 349 rocircle 89;
#X obj 302 299 rocircle 87;
#X obj 383 124 rocircle 90;
#X obj 383 150 rocircle 91;
#X obj 383 173 rocircle 92;
#X obj 383 199 rocircle 93;
#X obj 383 225 rocircle 94;
#X obj 383 251 rocircle 95;
#X obj 382 274 rocircle 96;
#X obj 383 300 rocircle 97;
#X obj 384 324 rocircle 98;
#X obj 384 350 rocircle 99;
#X connect 0 0 5 0;
#X connect 0 0 3 0;
#X connect 2 0 1 0;
#X connect 5 0 1 0;
#X connect 6 0 7 0;
#X connect 8 0 6 0;
#X connect 8 1 10 0;
#X connect 9 0 8 0;
#X connect 10 0 6 1;
