#N canvas 493 34 1003 661 10;
#X declare -path abs;
#X obj -265 167 gemwin;
#X obj -293 69 loadbang;
#X obj -200 238 k_snap;
#X obj -200 261 tgl 15 0 empty empty empty 17 7 0 10 -262144 -1 -1
0 1;
#X obj -200 189 t b b;
#X obj -200 170 bng 15 250 50 0 empty empty empty 17 7 0 10 -262144
-1 -1;
#X obj -140 292 gemhead;
#X obj -59 435 bng 15 250 50 0 empty empty empty 17 7 0 10 -262144
-1 -1;
#X obj 274 367 tabwrite color;
#X obj 240 48 repeat 100;
#X obj 240 28 bng 15 250 50 0 empty empty empty 17 7 0 10 -262144 -1
-1;
#X obj 240 74 f;
#X obj 266 74 + 1;
#X obj 293 74 % 100;
#X obj 240 100 t b f;
#X obj 240 121 repeat 3;
#X obj 241 196 sel 0 1 2;
#X obj 240 143 f;
#X obj 266 143 + 1;
#X obj 293 143 % 3;
#X obj 335 303 expr $f1+($f2*3);
#X obj 240 169 t f f;
#X obj -186 94 table color 1000;
#X obj 50 229 expr $f1+($f2*3);
#X obj 50 119 repeat 3;
#X obj 50 140 f;
#X obj 76 140 + 1;
#X obj 103 140 % 3;
#X obj 50 94 t b f;
#X obj 50 165 sel 0 1 2;
#X obj 100 187 t b b;
#X msg 50 197 0;
#X msg 79 208 1;
#X msg 127 209 2;
#X obj 76 248 expr $f1+($f2*3);
#X obj 107 270 expr $f1+($f2*3);
#X obj 46 374 pack f f f;
#X obj 28 397 list;
#X msg 28 422 \$3 \$2 \$1;
#X obj 109 328 tabread color;
#X obj 107 301 tabread color;
#X obj 76 349 tabread color;
#X obj -140 348 scale 3;
#X floatatom -44 362 5 0 0 0 - - -;
#X obj 368 111 gemhead;
#X obj 368 219 cube 1;
#X msg 71 611 noise \$1;
#X obj 175 487 gemhead;
#X obj 175 595 cube 1;
#X obj 386 372 gemhead;
#X obj 386 400 t b;
#X obj 386 434 f;
#X obj 412 434 + 1;
#X floatatom 368 542 5 0 0 0 - - -;
#X obj 175 640 cube 1;
#X msg 292 627 draw line;
#X obj 291 603 loadbang;
#X obj 459 288 cube 1;
#X msg 549 276 draw line;
#X obj 549 252 loadbang;
#X obj 368 167 scaleXYZ 1.6 0.05 1.6;
#X obj 386 486 outinquint;
#X obj 175 617 color 0.6 0.6 0.6;
#X obj 459 266 color 0.6 0.6 0.6;
#X obj 439 434 % 120;
#X obj 282 265 randomF 0.01;
#X obj 260 242 randomF 0.01;
#X obj 241 219 randomF 0.01;
#X obj 260 308 + 0.2;
#X obj 282 287 + 0.2;
#X obj 242 294 + 0.2;
#X obj 368 195 color 0.8 0.8 0.8;
#X msg 23 451 color \$1 \$2 \$3 \, showface 200 \, Lcolor 0.3 0.3 0.3
;
#X floatatom 441 94 5 0 0 0 - - -;
#X obj 368 566 expr 0.03*(0.5-abs(0.5-$f1));
#X obj 174 571 color 0.95 0.95 0.94;
#X obj 238 409 k_range 0 1 -7 7;
#X obj 175 543 scaleXYZ 0.4 0.13 0.4;
#X msg -167 211 size 500 500 \, end 120 \, name desk;
#X obj -140 317 translateXYZ 0 -0.57 0;
#X obj 368 136 translateXYZ 0 -0.66 0;
#X obj -188 69 declare -path abs;
#X msg -59 501 read abs/desk.txt;
#X obj 175 512 translateXYZ 0 0.69 0;
#X obj -59 410 loadbang;
#X obj -59 456 t b b;
#X msg 10 477 line 1 \, fill 1;
#X obj 386 459 / 100;
#X msg -319 23 view -2.87668 1.28187 -2.46649 0 0 0 0 1 0;
#X obj -308 95 t b b;
#X msg -265 141 destroy \, reset \, FSAA 8 \, color 0.8 0.8 0.78 \,
create \, 1;
#X obj -140 529 k_3Dmodel;
#X connect 1 0 89 0;
#X connect 2 0 3 0;
#X connect 4 0 2 0;
#X connect 4 1 78 0;
#X connect 5 0 4 0;
#X connect 6 0 79 0;
#X connect 7 0 85 0;
#X connect 9 0 11 0;
#X connect 10 0 9 0;
#X connect 11 0 12 0;
#X connect 11 0 14 0;
#X connect 12 0 13 0;
#X connect 13 0 11 1;
#X connect 14 0 15 0;
#X connect 14 1 20 1;
#X connect 15 0 17 0;
#X connect 16 0 67 0;
#X connect 16 1 66 0;
#X connect 16 2 65 0;
#X connect 17 0 18 0;
#X connect 17 0 21 0;
#X connect 18 0 19 0;
#X connect 19 0 17 1;
#X connect 20 0 8 1;
#X connect 21 0 16 0;
#X connect 21 1 20 0;
#X connect 23 0 39 0;
#X connect 24 0 25 0;
#X connect 25 0 26 0;
#X connect 25 0 29 0;
#X connect 26 0 27 0;
#X connect 27 0 25 1;
#X connect 28 0 24 0;
#X connect 28 1 23 1;
#X connect 28 1 35 1;
#X connect 28 1 34 1;
#X connect 29 0 31 0;
#X connect 29 1 32 0;
#X connect 29 2 30 0;
#X connect 30 0 37 0;
#X connect 30 1 33 0;
#X connect 31 0 23 0;
#X connect 32 0 34 0;
#X connect 33 0 35 0;
#X connect 34 0 41 0;
#X connect 35 0 40 0;
#X connect 36 0 37 1;
#X connect 37 0 38 0;
#X connect 38 0 72 0;
#X connect 39 0 36 2;
#X connect 40 0 36 0;
#X connect 41 0 36 1;
#X connect 42 0 91 0;
#X connect 43 0 79 2;
#X connect 44 0 80 0;
#X connect 45 0 63 0;
#X connect 46 0 91 2;
#X connect 47 0 83 0;
#X connect 48 0 62 0;
#X connect 49 0 50 0;
#X connect 50 0 51 0;
#X connect 51 0 52 0;
#X connect 51 0 87 0;
#X connect 52 0 64 0;
#X connect 53 0 74 0;
#X connect 55 0 54 0;
#X connect 56 0 55 0;
#X connect 58 0 57 0;
#X connect 59 0 58 0;
#X connect 60 0 71 0;
#X connect 61 0 53 0;
#X connect 61 0 76 0;
#X connect 62 0 54 0;
#X connect 63 0 57 0;
#X connect 64 0 51 1;
#X connect 65 0 69 0;
#X connect 66 0 68 0;
#X connect 67 0 70 0;
#X connect 68 0 8 0;
#X connect 69 0 8 0;
#X connect 70 0 8 0;
#X connect 71 0 45 0;
#X connect 72 0 91 2;
#X connect 73 0 80 2;
#X connect 74 0 46 0;
#X connect 75 0 48 0;
#X connect 76 0 83 1;
#X connect 77 0 75 0;
#X connect 78 0 2 1;
#X connect 79 0 42 0;
#X connect 80 0 60 0;
#X connect 82 0 91 1;
#X connect 83 0 77 0;
#X connect 84 0 7 0;
#X connect 85 0 82 0;
#X connect 85 1 86 0;
#X connect 86 0 91 2;
#X connect 87 0 61 0;
#X connect 88 0 0 0;
#X connect 89 0 88 0;
#X connect 89 1 90 0;
#X connect 90 0 0 0;
#X connect 91 0 28 0;
