#N canvas 694 28 801 730 10;
#X declare -path abs;
#X obj -45 -116 loadbang;
#X obj -45 17 gemwin;
#X obj 218 159 line;
#X msg 13 20 \; pd dsp 1;
#X floatatom 218 182 5 0 0 0 - - -;
#X obj -46 85 table y 100;
#X obj 163 383 tabwrite~ y;
#X obj 183 325 gemhead;
#X obj 183 356 t b;
#X obj 413 240 f;
#X obj 444 240 + 1;
#X obj 287 347 tabwrite;
#X msg 323 317 set \$1-y;
#X obj 413 168 r start;
#X obj 413 192 t b f;
#X obj 287 307 / 50;
#X obj 287 216 k_spec;
#X obj 413 217 repeat 50;
#X obj 470 240 % 50;
#X obj 380 149 expr int($f1* 2.56);
#X floatatom 98 131 5 0 0 0 - - -;
#X obj 152 534 s gemhead;
#X obj 98 82 random 30;
#X obj 566 255 repeat 20;
#X obj 566 276 f;
#X obj 597 276 + 1;
#X obj 623 276 % 20;
#X obj 564 299 t f f;
#X obj 564 351 pack f f f f;
#X obj 566 232 bng 15 250 50 0 empty empty empty 17 7 0 10 -262144
-1 -1;
#X msg 564 381 \$4 \$1 \$2 \$3;
#X obj 564 408 s color;
#X obj 70 55 noise~;
#X obj 70 156 bp~ 200 30;
#X obj 218 15 gemhead;
#X obj 218 109 sel 0;
#X obj 218 54 t b b;
#X obj 566 210 loadbang;
#X obj 152 477 translateXYZ 0 0 1;
#X obj 152 425 gemhead 100;
#X obj 70 186 *~ 10;
#X obj 152 506 rotateXYZ 0 0 0;
#X floatatom 467 303 5 0 0 0 - - -;
#X obj 413 265 t f f f;
#X obj 408 324 sel 49;
#X obj 364 359 tabminmax my_array66;
#X obj 481 382 unpack;
#X floatatom 514 405 2 0 0 3 idx - -;
#X obj 481 436 tabwrite max;
#X text 560 174 0 \, 0.37 0.49 1 \;;
#X obj 289 385 table max 20;
#X obj 163 292 *~ 0.3;
#X msg 218 134 0.5 \, 0.01 1000;
#X obj 152 448 GEMglLineWidth 2;
#X obj 218 88 k_count 1 40;
#N canvas 429 149 991 502 rect 0;
#X obj 498 71 gemhead;
#X obj 497 229 cube 0.1;
#X obj 497 156 rotateXYZ 0 0 0;
#X obj 488 264 gemhead;
#X obj 487 422 cube 0.1;
#X obj 487 349 rotateXYZ 0 0 0;
#X obj 158 206 GEMglEnd;
#X obj 209 175 GEMglBegin;
#X obj 158 175 t a a a;
#X obj 177 263 t a b;
#X obj 204 286 f;
#X obj 235 286 + 1;
#X obj 158 21 r gemhead;
#X obj 158 52 separator;
#X obj 266 112 loadbang;
#X obj 204 316 t f f f;
#X obj 93 347 unpack f f f;
#X obj 265 286 % 40;
#X obj 177 230 repeat 40;
#X obj 11 155 r start;
#X obj 56 69 / 2;
#X obj 56 92 int;
#X obj -4 207 % 20;
#X msg 266 143 1;
#X obj 193 350 tabread max;
#X obj -4 232 t f f;
#X floatatom 105 254 5 0 0 0 - - -;
#X obj -4 181 + 0;
#X floatatom 311 160 5 0 0 0 - - -;
#X obj 154 122 GEMglPointSize 4;
#X msg 326 389 0;
#X msg 376 395 1;
#X obj 207 406 * 0;
#X obj 200 373 + 0.01;
#X obj 700 69 gemhead;
#X obj 789 42 gemhead;
#X obj 157 79 GEMglLineWidth 2;
#X obj 330 230 + 1;
#X obj 323 266 tabread max;
#X obj 330 289 + 0.01;
#X obj 401 265 tabread max;
#X obj 408 288 + 0.01;
#X obj 401 204 + 18;
#X obj 398 227 % 20;
#X floatatom 904 51 5 0 0 0 - - -;
#X obj 414 373 print;
#X obj 57 377 GEMglColor3f 1 1 1;
#X obj 488 383 scaleXYZ 0.7 0.1 0.1;
#X obj 498 189 scaleXYZ 0.7 0.1 0.1;
#X floatatom 564 79 5 0 0 0 - - -;
#X obj 699 118 translateXYZ -1.52 0 2;
#X obj 691 291 gemhead;
#X obj 780 264 gemhead;
#X floatatom 895 273 5 0 0 0 - - -;
#X obj 690 340 translateXYZ 1.46 0 2;
#X obj 779 422 sphere 0.02;
#X obj 690 449 sphere 0.02;
#X obj 699 227 sphere 0.02;
#X obj 788 200 sphere 0.02;
#X obj 779 313 translateXYZ 1.46 0 -1.6;
#X obj 312 338 k_range 0 39 1 -2.6;
#X obj 325 365 sel 1 -2.6;
#X obj 497 120 translateXYZ -1.6 0 2;
#X obj 788 91 translateXYZ -1.52 0 -1.6;
#X obj 487 313 translateXYZ -1.6 0 -1.6;
#X obj 177 426 GEMglVertex3f -1.66 0 0;
#X obj -4 256 coll abs/color.txt;
#C restore;
#X connect 0 0 62 0;
#X connect 2 0 48 0;
#X connect 3 0 64 0;
#X connect 5 0 47 0;
#X connect 8 0 6 0;
#X connect 8 1 18 0;
#X connect 8 2 7 0;
#X connect 9 0 46 0;
#X connect 9 1 10 0;
#X connect 10 0 11 0;
#X connect 10 0 15 0;
#X connect 11 0 17 0;
#X connect 12 0 13 0;
#X connect 13 0 36 0;
#X connect 14 0 23 0;
#X connect 15 1 20 0;
#X connect 15 2 60 0;
#X connect 16 0 46 1;
#X connect 16 1 46 2;
#X connect 16 2 46 3;
#X connect 17 0 10 1;
#X connect 18 0 9 0;
#X connect 19 0 27 1;
#X connect 20 0 21 0;
#X connect 21 0 27 0;
#X connect 22 0 25 0;
#X connect 23 0 7 1;
#X connect 24 0 33 0;
#X connect 25 0 66 0;
#X connect 25 1 26 0;
#X connect 26 0 24 0;
#X connect 26 0 37 0;
#X connect 26 0 42 0;
#X connect 27 0 22 0;
#X connect 28 0 7 1;
#X connect 29 0 8 0;
#X connect 30 0 32 1;
#X connect 31 0 32 1;
#X connect 32 0 65 2;
#X connect 33 0 32 0;
#X connect 34 0 50 0;
#X connect 35 0 63 0;
#X connect 36 0 29 0;
#X connect 37 0 38 0;
#X connect 38 0 39 0;
#X connect 40 0 41 0;
#X connect 42 0 43 0;
#X connect 43 0 40 0;
#X connect 44 0 63 3;
#X connect 46 0 65 0;
#X connect 47 0 4 0;
#X connect 48 0 1 0;
#X connect 50 0 57 0;
#X connect 51 0 54 0;
#X connect 52 0 59 0;
#X connect 53 0 59 3;
#X connect 54 0 56 0;
#X connect 59 0 55 0;
#X connect 60 0 61 0;
#X connect 60 0 65 3;
#X connect 61 0 30 0;
#X connect 61 1 30 0;
#X connect 61 2 31 0;
#X connect 62 0 2 0;
#X connect 63 0 58 0;
#X connect 64 0 5 0;
#X connect 66 0 16 0;
#X restore 15 570 pd rect;
#X obj -5 282 s_line 0;
#X obj -7 306 s_line 1;
#X obj -9 331 s_line 2;
#X obj -8 355 s_line 3;
#X obj -10 379 s_line 4;
#X obj -9 403 s_line 5;
#X obj -9 427 s_line 6;
#X obj -8 451 s_line 7;
#X obj -7 473 s_line 8;
#X obj -6 497 s_line 9;
#X obj 62 281 s_line 10;
#X obj 63 305 s_line 11;
#X obj 63 329 s_line 12;
#X obj 64 353 s_line 13;
#X obj 62 377 s_line 14;
#X obj 63 401 s_line 15;
#X obj 63 425 s_line 16;
#X obj 64 449 s_line 17;
#X obj 65 471 s_line 18;
#X obj 66 495 s_line 19;
#X obj 98 106 expr $f1*20+300;
#X obj 281 503 k_snap;
#X obj 281 526 tgl 15 0 empty empty empty 17 7 0 10 -262144 -1 -1 0
1;
#X obj 281 454 t b b;
#X obj 281 435 bng 15 250 50 0 empty empty empty 17 7 0 10 -262144
-1 -1;
#X msg 308 477 size 500 500 \, end 120 \, name line;
#X obj 366 57 declare -path abs;
#X obj 564 323 coll abs/color.txt;
#C restore;
#X msg -45 -49 view 1.10163 1.50435 3.53912 0 0 0 0 1 0;
#X msg -18 -20 destroy \, reset \, FSAA 8 \, dimen 500 500 \, color
0.1 0.1 0.1 \, create \, 1;
#X obj -45 -73 t b b;
#X obj -45 -93 bng 15 250 50 0 empty empty empty 17 7 0 10 -262144
-1 -1;
#X connect 0 0 3 0;
#X connect 0 0 87 0;
#X connect 2 0 4 0;
#X connect 4 0 51 1;
#X connect 7 0 8 0;
#X connect 8 0 6 0;
#X connect 9 0 10 0;
#X connect 9 0 43 0;
#X connect 10 0 18 0;
#X connect 12 0 11 0;
#X connect 12 0 45 0;
#X connect 13 0 14 0;
#X connect 14 0 17 0;
#X connect 14 1 12 0;
#X connect 14 1 42 0;
#X connect 15 0 11 0;
#X connect 16 0 15 0;
#X connect 17 0 9 0;
#X connect 18 0 9 1;
#X connect 19 0 16 1;
#X connect 20 0 33 1;
#X connect 22 0 76 0;
#X connect 23 0 24 0;
#X connect 24 0 25 0;
#X connect 24 0 27 0;
#X connect 25 0 26 0;
#X connect 26 0 24 1;
#X connect 27 0 83 0;
#X connect 27 1 28 3;
#X connect 28 0 30 0;
#X connect 29 0 23 0;
#X connect 30 0 31 0;
#X connect 32 0 33 0;
#X connect 33 0 40 0;
#X connect 34 0 36 0;
#X connect 35 0 52 0;
#X connect 35 0 22 0;
#X connect 36 0 54 0;
#X connect 37 0 29 0;
#X connect 38 0 41 0;
#X connect 39 0 53 0;
#X connect 40 0 51 0;
#X connect 41 0 21 0;
#X connect 42 0 48 1;
#X connect 43 0 44 0;
#X connect 43 1 19 0;
#X connect 43 2 11 1;
#X connect 44 0 45 0;
#X connect 45 1 46 0;
#X connect 46 0 48 0;
#X connect 46 1 47 0;
#X connect 51 0 6 0;
#X connect 51 0 16 0;
#X connect 52 0 2 0;
#X connect 53 0 38 0;
#X connect 54 0 35 0;
#X connect 76 0 20 0;
#X connect 77 0 78 0;
#X connect 79 0 77 0;
#X connect 79 1 81 0;
#X connect 80 0 79 0;
#X connect 81 0 77 1;
#X connect 83 0 28 0;
#X connect 84 0 1 0;
#X connect 85 0 1 0;
#X connect 86 0 84 0;
#X connect 86 1 85 0;
#X connect 87 0 86 0;
