#N canvas 737 84 448 667 10;
#X obj 91 -198 gemhead;
#X obj 91 -142 t a b;
#X obj 117 -120 f;
#X obj 281 190 loadbang;
#X obj 91 -171 translateXYZ;
#X obj 209 -227 t f f;
#X obj 209 -195 expr $f1%10;
#X obj 255 -139 expr int($f1/10);
#X obj 209 -266 init \$1;
#X msg 91 -219 set \$1;
#X obj 117 -82 +;
#X obj 117 -51 +;
#X obj 209 -293 bng 15 250 50 0 empty empty empty 17 7 0 10 -262144
-1 -1;
#X obj 167 -81 * 10;
#X obj 152 -51 * 10;
#X obj 91 -243 + 1;
#X msg 281 215 draw line \, width 1;
#X obj 92 176 alpha;
#X obj 148 -120 + 4;
#X obj 255 -114 t f f f f;
#X obj 180 -121 % 120;
#X obj 117 -27 fmod 120;
#X obj 117 1 / 120;
#X obj 272 -90 k_range 0 9 2.5 -2.5;
#X obj 209 -164 k_range 0 9 2.5 -2.5;
#X obj 91 114 rotateXYZ;
#X obj 117 25 t f f f;
#X obj 142 88 * 360;
#X obj 91 150 colorRGB 0.1 0.1 0.1 1;
#X obj 91 203 scale 1;
#X obj 91 259 color 0.9 0.9 0.9;
#X obj 91 62 k_rect_move 0.4;
#X obj 91 236 rectangle 1 0.1;
#X obj 91 291 rectangle 1 0.1;
#X obj 183 112 expr abs($f1-0.5)*1.4+0.4;
#X connect 0 0 4 0;
#X connect 1 0 31 0;
#X connect 1 1 2 0;
#X connect 2 0 10 0;
#X connect 2 0 18 0;
#X connect 3 0 16 0;
#X connect 4 0 1 0;
#X connect 5 0 6 0;
#X connect 5 1 7 0;
#X connect 6 0 13 0;
#X connect 6 0 24 0;
#X connect 7 0 19 0;
#X connect 8 0 5 0;
#X connect 8 0 15 0;
#X connect 9 0 0 0;
#X connect 10 0 11 0;
#X connect 11 0 21 0;
#X connect 12 0 8 0;
#X connect 13 0 10 1;
#X connect 14 0 11 1;
#X connect 15 0 9 0;
#X connect 16 0 33 0;
#X connect 17 0 29 0;
#X connect 18 0 20 0;
#X connect 19 0 14 0;
#X connect 19 1 23 0;
#X connect 20 0 2 1;
#X connect 21 0 22 0;
#X connect 22 0 26 0;
#X connect 23 0 4 2;
#X connect 24 0 4 1;
#X connect 25 0 28 0;
#X connect 26 0 31 1;
#X connect 26 1 27 0;
#X connect 26 2 34 0;
#X connect 27 0 25 3;
#X connect 28 0 17 0;
#X connect 29 0 32 0;
#X connect 30 0 33 0;
#X connect 31 0 25 0;
#X connect 32 0 30 0;
#X connect 34 0 29 1;
